<svg width="24" height="24" viewBox="0 0 24 24" fill="none" xmlns="http://www.w3.org/2000/svg">
<rect width="24" height="24" fill="#1C1C1C"/>
<g id="Website" clip-path="url(#clip0_2551_67896)">
<rect width="1440" height="7048" transform="translate(-1296 -6102)" fill="white"/>
<g id="Switch Mobile=No, Dark=No">
<rect width="1440" height="1103" transform="translate(-1296 -157)" fill="#F8F8F8"/>
<g id="Frame 1171275732">
<g id="Frame 1171275746">
<g id="Frame 1171275747">
<g id="remove_FILL0_wght300_GRAD0_opsz24 (1) 1">
<path id="Vector" d="M6.25003 12.7499C6.03753 12.7499 5.85941 12.678 5.71566 12.5342C5.57191 12.3904 5.50003 12.2122 5.50003 11.9996C5.50003 11.787 5.57191 11.609 5.71566 11.4654C5.85941 11.3218 6.03753 11.25 6.25003 11.25H17.75C17.9625 11.25 18.1406 11.3219 18.2844 11.4657C18.4281 11.6095 18.5 11.7877 18.5 12.0003C18.5 12.2129 18.4281 12.391 18.2844 12.5346C18.1406 12.6782 17.9625 12.7499 17.75 12.7499H6.25003Z" fill="black"/>
</g>
</g>
</g>
</g>
</g>
</g>
<defs>
<clipPath id="clip0_2551_67896">
<rect width="1440" height="7048" fill="white" transform="translate(-1296 -6102)"/>
</clipPath>
</defs>
</svg>
