<svg width="53" height="53" viewBox="0 0 53 53" fill="none" xmlns="http://www.w3.org/2000/svg">
<rect width="53" height="53" fill="#1C1C1C"/>
<g id="Website" clip-path="url(#clip0_2551_67896)">
<rect width="1440" height="7048" transform="translate(-158 -643)" fill="white"/>
<g id="Hero" clip-path="url(#clip1_2551_67896)">
<rect width="1440" height="939" transform="translate(-158 -643)" fill="white"/>
<g id="Vector">
<path d="M26.5 0V25.9362H0L2.31922 25.2741C13.6542 22.0384 22.5175 13.3637 25.8236 2.26988L26.5 0Z" fill="#B5E4CA"/>
<path d="M26.5 53V25.9362H0L2.39109 26.6484C13.682 30.0117 22.4392 38.7809 25.6163 49.9057L26.5 53Z" fill="#B5E4CA"/>
<path d="M26.5 0V25.9362H53L50.6808 25.2741C39.3458 22.0384 30.4825 13.3637 27.1764 2.26988L26.5 0Z" fill="#B5E4CA"/>
<path d="M26.5 53V25.9362H53L50.6089 26.6484C39.318 30.0117 30.5608 38.7809 27.3837 49.9057L26.5 53Z" fill="#B5E4CA"/>
</g>
</g>
</g>
<defs>
<clipPath id="clip0_2551_67896">
<rect width="1440" height="7048" fill="white" transform="translate(-158 -643)"/>
</clipPath>
<clipPath id="clip1_2551_67896">
<rect width="1440" height="939" fill="white" transform="translate(-158 -643)"/>
</clipPath>
</defs>
</svg>
