<svg width="1440" height="999" viewBox="0 0 1440 999" fill="none" xmlns="http://www.w3.org/2000/svg">
<path opacity="0.0571429" d="M-256.631 1088.51C-283.301 851.498 -232.592 325.609 183.599 118.121C703.837 -141.239 836.964 -464.941 791.596 -800.928" stroke="url(#paint0_linear_2551_68059)" stroke-opacity="0.3"/>
<path opacity="0.114286" d="M-258.232 1076.5C-264.367 838.674 -168.542 320.621 263.835 151.04C804.308 -60.9367 964.79 -370.86 948.563 -708.674" stroke="url(#paint1_linear_2551_68059)" stroke-opacity="0.3"/>
<path opacity="0.171429" d="M-260.951 1056.04C-246.61 819.16 -106.645 312.794 338.482 182.356C894.891 19.3078 1081.34 -274.539 1094.23 -611.664" stroke="url(#paint2_linear_2551_68059)" stroke-opacity="0.3"/>
<path opacity="0.228571" d="M-263.277 1049.74C-228.67 815.57 -45.8679 324.633 408.479 234.263C976.412 121.3 1187.26 -154.309 1229.02 -488.247" stroke="url(#paint3_linear_2551_68059)" stroke-opacity="0.3"/>
<path opacity="0.285714" d="M-266.133 1043.14C-211.62 813.395 12.4005 341.49 472.374 291.796C1047.34 229.68 1280.82 -25.6823 1351.01 -353.972" stroke="url(#paint4_linear_2551_68059)" stroke-opacity="0.3"/>
<path opacity="0.342857" d="M-269.49 1036.18C-195.577 812.55 67.7424 363.115 529.714 354.386C1107.18 343.474 1361.37 110.201 1459.32 -210.033" stroke="url(#paint5_linear_2551_68059)" stroke-opacity="0.3"/>
<path opacity="0.4" d="M-281.412 1022.4C-188.746 806.521 111.668 382.807 572.001 415.006C1147.42 455.256 1420.26 245.733 1545.1 -64.1099" stroke="url(#paint6_linear_2551_68059)" stroke-opacity="0.3"/>
<path opacity="0.457143" d="M-279.253 1006.51C-168.62 799.935 166.418 404.979 621.5 477.751C1190.35 568.717 1479.64 384.413 1630.31 87.2071" stroke="url(#paint7_linear_2551_68059)" stroke-opacity="0.3"/>
<path opacity="0.514286" d="M-283.902 998.242C-156.214 802.461 210.73 439.067 656.997 551.737C1214.83 692.574 1518.25 534.758 1693.51 252.329" stroke="url(#paint8_linear_2551_68059)" stroke-opacity="0.3"/>
<path opacity="0.571429" d="M-288.897 989.469C-145.189 805.88 250.717 476.596 684.685 628.177C1227.14 817.653 1542.29 687.381 1740.71 421.749" stroke="url(#paint9_linear_2551_68059)" stroke-opacity="0.3"/>
<path opacity="0.628571" d="M-301.376 1038.43C-156.774 856.299 240.421 530.911 672.383 686.378C1212.34 880.711 1527.63 753.441 1727.37 489.837" stroke="url(#paint10_linear_2551_68059)" stroke-opacity="0.3"/>
<path opacity="0.685714" d="M-295.452 1024.52C-130.86 867.646 297.172 590.68 692.563 737.797C1186.8 921.693 1508.54 817.165 1737.54 589.887" stroke="url(#paint11_linear_2551_68059)" stroke-opacity="0.3"/>
<path opacity="0.742857" d="M-302.496 1002.04C-121.677 871.209 331.309 644.22 696.699 782.927C1153.44 956.31 1480.28 875.309 1733.05 685.482" stroke="url(#paint12_linear_2551_68059)" stroke-opacity="0.3"/>
<path opacity="0.8" d="M-340.985 995.366C-147.218 892.246 325.28 717.513 665.143 843.538C1089.97 1001.07 1420.28 943.668 1692.04 793.763" stroke="url(#paint13_linear_2551_68059)" stroke-opacity="0.3"/>
<defs>
<linearGradient id="paint0_linear_2551_68059" x1="-56.3306" y1="54.8363" x2="577.662" y2="228.997" gradientUnits="userSpaceOnUse">
<stop stop-color="#F7EA78" stop-opacity="0.5"/>
<stop offset="0.0001" stop-color="#F7EA78" stop-opacity="0.9"/>
<stop offset="1" stop-color="#F7EA78"/>
</linearGradient>
<linearGradient id="paint1_linear_2551_68059" x1="30.3374" y1="67.0778" x2="646.738" y2="295.832" gradientUnits="userSpaceOnUse">
<stop stop-color="#F7EA78" stop-opacity="0.5"/>
<stop offset="0.0001" stop-color="#F7EA78" stop-opacity="0.9"/>
<stop offset="1" stop-color="#F7EA78"/>
</linearGradient>
<linearGradient id="paint2_linear_2551_68059" x1="113.193" y1="78.356" x2="707.311" y2="359.962" gradientUnits="userSpaceOnUse">
<stop stop-color="#F7EA78" stop-opacity="0.5"/>
<stop offset="0.0001" stop-color="#F7EA78" stop-opacity="0.9"/>
<stop offset="1" stop-color="#F7EA78"/>
</linearGradient>
<linearGradient id="paint3_linear_2551_68059" x1="193.116" y1="111.017" x2="760.429" y2="443.333" gradientUnits="userSpaceOnUse">
<stop stop-color="#F7EA78" stop-opacity="0.5"/>
<stop offset="0.0001" stop-color="#F7EA78" stop-opacity="0.9"/>
<stop offset="1" stop-color="#F7EA78"/>
</linearGradient>
<linearGradient id="paint4_linear_2551_68059" x1="268.576" y1="150.244" x2="804.767" y2="530.739" gradientUnits="userSpaceOnUse">
<stop stop-color="#F7EA78" stop-opacity="0.5"/>
<stop offset="0.0001" stop-color="#F7EA78" stop-opacity="0.9"/>
<stop offset="1" stop-color="#F7EA78"/>
</linearGradient>
<linearGradient id="paint5_linear_2551_68059" x1="339.033" y1="195.604" x2="840.022" y2="621.384" gradientUnits="userSpaceOnUse">
<stop stop-color="#F7EA78" stop-opacity="0.5"/>
<stop offset="0.0001" stop-color="#F7EA78" stop-opacity="0.9"/>
<stop offset="1" stop-color="#F7EA78"/>
</linearGradient>
<linearGradient id="paint6_linear_2551_68059" x1="395.89" y1="240.205" x2="857.863" y2="708.028" gradientUnits="userSpaceOnUse">
<stop stop-color="#F7EA78" stop-opacity="0.5"/>
<stop offset="0.0001" stop-color="#F7EA78" stop-opacity="0.9"/>
<stop offset="1" stop-color="#F7EA78"/>
</linearGradient>
<linearGradient id="paint7_linear_2551_68059" x1="461.3" y1="288.261" x2="880.742" y2="794.568" gradientUnits="userSpaceOnUse">
<stop stop-color="#F7EA78" stop-opacity="0.5"/>
<stop offset="0.0001" stop-color="#F7EA78" stop-opacity="0.9"/>
<stop offset="1" stop-color="#F7EA78"/>
</linearGradient>
<linearGradient id="paint8_linear_2551_68059" x1="513.928" y1="349.001" x2="887.646" y2="889.938" gradientUnits="userSpaceOnUse">
<stop stop-color="#F7EA78" stop-opacity="0.5"/>
<stop offset="0.0001" stop-color="#F7EA78" stop-opacity="0.9"/>
<stop offset="1" stop-color="#F7EA78"/>
</linearGradient>
<linearGradient id="paint9_linear_2551_68059" x1="559.836" y1="413.74" x2="884.986" y2="985.19" gradientUnits="userSpaceOnUse">
<stop stop-color="#F7EA78" stop-opacity="0.5"/>
<stop offset="0.0001" stop-color="#F7EA78" stop-opacity="0.9"/>
<stop offset="1" stop-color="#F7EA78"/>
</linearGradient>
<linearGradient id="paint10_linear_2551_68059" x1="549.25" y1="470.95" x2="869.845" y2="1044.97" gradientUnits="userSpaceOnUse">
<stop stop-color="#F7EA78" stop-opacity="0.5"/>
<stop offset="0.0001" stop-color="#F7EA78" stop-opacity="0.9"/>
<stop offset="1" stop-color="#F7EA78"/>
</linearGradient>
<linearGradient id="paint11_linear_2551_68059" x1="603.407" y1="545.247" x2="833.731" y2="1058.13" gradientUnits="userSpaceOnUse">
<stop stop-color="#F7EA78" stop-opacity="0.5"/>
<stop offset="0.0001" stop-color="#F7EA78" stop-opacity="0.9"/>
<stop offset="1" stop-color="#F7EA78"/>
</linearGradient>
<linearGradient id="paint12_linear_2551_68059" x1="635.291" y1="613.858" x2="791.899" y2="1063.99" gradientUnits="userSpaceOnUse">
<stop stop-color="#F7EA78" stop-opacity="0.5"/>
<stop offset="0.0001" stop-color="#F7EA78" stop-opacity="0.9"/>
<stop offset="1" stop-color="#F7EA78"/>
</linearGradient>
<linearGradient id="paint13_linear_2551_68059" x1="626.716" y1="701.437" x2="722.282" y2="1079.56" gradientUnits="userSpaceOnUse">
<stop stop-color="#F7EA78" stop-opacity="0.5"/>
<stop offset="0.0001" stop-color="#F7EA78" stop-opacity="0.9"/>
<stop offset="1" stop-color="#F7EA78"/>
</linearGradient>
</defs>
</svg>
