<svg width="36" height="34" viewBox="0 0 36 34" fill="none" xmlns="http://www.w3.org/2000/svg">
<rect width="36" height="34" fill="#1C1C1C"/>
<g id="Website" clip-path="url(#clip0_2551_67896)">
<rect width="1440" height="7048" transform="translate(-703 -2374)" fill="white"/>
<g id="Bg">
<g id="Frame 1171275721" clip-path="url(#clip1_2551_67896)">
<rect width="1440" height="999" transform="translate(-703 -54)" fill="#1A1A1A"/>
<g id="BG-2">
<path id="Vector 10" opacity="0.0571429" d="M-959.631 1034.51C-986.301 797.498 -935.592 271.609 -519.401 64.121C0.837313 -195.239 133.964 -518.941 88.5958 -854.928" stroke="url(#paint0_linear_2551_67896)" stroke-opacity="0.3"/>
<path id="Vector 10_2" opacity="0.114286" d="M-961.232 1022.5C-967.367 784.674 -871.542 266.621 -439.165 97.0398C101.308 -114.937 261.79 -424.86 245.563 -762.674" stroke="url(#paint1_linear_2551_67896)" stroke-opacity="0.3"/>
<path id="Vector 10_3" opacity="0.171429" d="M-963.951 1002.04C-949.61 765.16 -809.645 258.794 -364.518 128.356C191.891 -34.6922 378.342 -328.539 391.232 -665.664" stroke="url(#paint2_linear_2551_67896)" stroke-opacity="0.3"/>
<path id="Vector 10_4" opacity="0.228571" d="M-966.277 995.743C-931.67 761.57 -748.868 270.633 -294.521 180.263C273.412 67.3 484.256 -208.309 526.021 -542.247" stroke="url(#paint3_linear_2551_67896)" stroke-opacity="0.3"/>
<path id="Vector 10_5" opacity="0.285714" d="M-969.133 989.137C-914.62 759.395 -690.599 287.49 -230.626 237.796C344.34 175.68 577.819 -79.6823 648.007 -407.972" stroke="url(#paint4_linear_2551_67896)" stroke-opacity="0.3"/>
<path id="Vector 10_6" opacity="0.342857" d="M-972.49 982.176C-898.577 758.55 -635.258 309.115 -173.286 300.386C404.178 289.474 658.372 56.2007 756.318 -264.033" stroke="url(#paint5_linear_2551_67896)" stroke-opacity="0.3"/>
<path id="Vector 10_7" opacity="0.4" d="M-984.412 968.403C-891.746 752.521 -591.332 328.807 -130.999 361.006C444.418 401.256 717.259 191.733 842.1 -118.11" stroke="url(#paint6_linear_2551_67896)" stroke-opacity="0.3"/>
<path id="Vector 10_8" opacity="0.457143" d="M-982.253 952.51C-871.62 745.935 -536.582 350.979 -81.4996 423.751C487.353 514.717 776.641 330.413 927.315 33.2071" stroke="url(#paint7_linear_2551_67896)" stroke-opacity="0.3"/>
<path id="Vector 10_9" opacity="0.514286" d="M-986.902 944.242C-859.214 748.461 -492.27 385.067 -46.0028 497.737C511.832 638.574 815.253 480.758 990.512 198.329" stroke="url(#paint8_linear_2551_67896)" stroke-opacity="0.3"/>
<path id="Vector 10_10" opacity="0.571429" d="M-991.897 935.469C-848.189 751.88 -452.283 422.596 -18.3152 574.177C524.144 763.653 839.29 633.381 1037.71 367.749" stroke="url(#paint9_linear_2551_67896)" stroke-opacity="0.3"/>
<path id="Vector 10_11" opacity="0.628571" d="M-1004.38 984.426C-859.774 802.299 -462.579 476.911 -30.6168 632.378C509.336 826.711 824.628 699.441 1024.37 435.837" stroke="url(#paint10_linear_2551_67896)" stroke-opacity="0.3"/>
</g>
<g id="Group 48097799">
<g id="Frame 1171275717">
</g>
</g>
</g>
<g id="Group 30">
<path id="Vector 27" d="M1.88867 17.5555L10.7776 3.11108" stroke="#F6E96F" stroke-width="3.5" stroke-linecap="round" stroke-linejoin="round"/>
<path id="Vector 28" d="M30.7769 2L8.55469 24.2222" stroke="#F6E96F" stroke-width="3.5" stroke-linecap="round" stroke-linejoin="round"/>
<path id="Vector 29" d="M11.8887 31.9999C16.193 29.3138 26.6634 23.9992 34.1109 24.2294" stroke="#F6E96F" stroke-width="3.5" stroke-linecap="round" stroke-linejoin="round"/>
</g>
</g>
</g>
<defs>
<linearGradient id="paint0_linear_2551_67896" x1="-759.331" y1="0.836301" x2="-125.338" y2="174.997" gradientUnits="userSpaceOnUse">
<stop stop-color="#F7EA78" stop-opacity="0.5"/>
<stop offset="0.0001" stop-color="#F7EA78" stop-opacity="0.9"/>
<stop offset="1" stop-color="#F7EA78"/>
</linearGradient>
<linearGradient id="paint1_linear_2551_67896" x1="-672.663" y1="13.0778" x2="-56.262" y2="241.832" gradientUnits="userSpaceOnUse">
<stop stop-color="#F7EA78" stop-opacity="0.5"/>
<stop offset="0.0001" stop-color="#F7EA78" stop-opacity="0.9"/>
<stop offset="1" stop-color="#F7EA78"/>
</linearGradient>
<linearGradient id="paint2_linear_2551_67896" x1="-589.807" y1="24.356" x2="4.3112" y2="305.962" gradientUnits="userSpaceOnUse">
<stop stop-color="#F7EA78" stop-opacity="0.5"/>
<stop offset="0.0001" stop-color="#F7EA78" stop-opacity="0.9"/>
<stop offset="1" stop-color="#F7EA78"/>
</linearGradient>
<linearGradient id="paint3_linear_2551_67896" x1="-509.884" y1="57.017" x2="57.429" y2="389.333" gradientUnits="userSpaceOnUse">
<stop stop-color="#F7EA78" stop-opacity="0.5"/>
<stop offset="0.0001" stop-color="#F7EA78" stop-opacity="0.9"/>
<stop offset="1" stop-color="#F7EA78"/>
</linearGradient>
<linearGradient id="paint4_linear_2551_67896" x1="-434.424" y1="96.2435" x2="101.767" y2="476.739" gradientUnits="userSpaceOnUse">
<stop stop-color="#F7EA78" stop-opacity="0.5"/>
<stop offset="0.0001" stop-color="#F7EA78" stop-opacity="0.9"/>
<stop offset="1" stop-color="#F7EA78"/>
</linearGradient>
<linearGradient id="paint5_linear_2551_67896" x1="-363.967" y1="141.604" x2="137.022" y2="567.384" gradientUnits="userSpaceOnUse">
<stop stop-color="#F7EA78" stop-opacity="0.5"/>
<stop offset="0.0001" stop-color="#F7EA78" stop-opacity="0.9"/>
<stop offset="1" stop-color="#F7EA78"/>
</linearGradient>
<linearGradient id="paint6_linear_2551_67896" x1="-307.11" y1="186.205" x2="154.863" y2="654.028" gradientUnits="userSpaceOnUse">
<stop stop-color="#F7EA78" stop-opacity="0.5"/>
<stop offset="0.0001" stop-color="#F7EA78" stop-opacity="0.9"/>
<stop offset="1" stop-color="#F7EA78"/>
</linearGradient>
<linearGradient id="paint7_linear_2551_67896" x1="-241.7" y1="234.261" x2="177.742" y2="740.568" gradientUnits="userSpaceOnUse">
<stop stop-color="#F7EA78" stop-opacity="0.5"/>
<stop offset="0.0001" stop-color="#F7EA78" stop-opacity="0.9"/>
<stop offset="1" stop-color="#F7EA78"/>
</linearGradient>
<linearGradient id="paint8_linear_2551_67896" x1="-189.072" y1="295.001" x2="184.646" y2="835.938" gradientUnits="userSpaceOnUse">
<stop stop-color="#F7EA78" stop-opacity="0.5"/>
<stop offset="0.0001" stop-color="#F7EA78" stop-opacity="0.9"/>
<stop offset="1" stop-color="#F7EA78"/>
</linearGradient>
<linearGradient id="paint9_linear_2551_67896" x1="-143.164" y1="359.74" x2="181.986" y2="931.19" gradientUnits="userSpaceOnUse">
<stop stop-color="#F7EA78" stop-opacity="0.5"/>
<stop offset="0.0001" stop-color="#F7EA78" stop-opacity="0.9"/>
<stop offset="1" stop-color="#F7EA78"/>
</linearGradient>
<linearGradient id="paint10_linear_2551_67896" x1="-153.75" y1="416.95" x2="166.845" y2="990.969" gradientUnits="userSpaceOnUse">
<stop stop-color="#F7EA78" stop-opacity="0.5"/>
<stop offset="0.0001" stop-color="#F7EA78" stop-opacity="0.9"/>
<stop offset="1" stop-color="#F7EA78"/>
</linearGradient>
<clipPath id="clip0_2551_67896">
<rect width="1440" height="7048" fill="white" transform="translate(-703 -2374)"/>
</clipPath>
<clipPath id="clip1_2551_67896">
<rect width="1440" height="999" fill="white" transform="translate(-703 -54)"/>
</clipPath>
</defs>
</svg>
